<mxfile host="app.diagrams.net" modified="2021-02-13T03:04:43.239Z" agent="5.0 (X11; Linux x86_64) AppleWebKit/537.36 (KHTML, like Gecko) Chrome/88.0.4324.150 Safari/537.36" etag="GPxjWmMohcjVJy8CMNNS" version="14.3.1" type="github">
  <diagram id="rk8Fq4Ca0WTbu1IsZ5hW" name="Page-1">
    <mxGraphModel dx="1418" dy="737" grid="1" gridSize="10" guides="1" tooltips="1" connect="1" arrows="1" fold="1" page="1" pageScale="1" pageWidth="850" pageHeight="1100" math="0" shadow="0">
      <root>
        <mxCell id="0" />
        <mxCell id="1" parent="0" />
        <mxCell id="nuvz17tOCaLrUb6fHaeC-1" value="Source&lt;br&gt;Data" style="shape=cylinder3;whiteSpace=wrap;html=1;boundedLbl=1;backgroundOutline=1;size=15;" parent="1" vertex="1">
          <mxGeometry x="80" y="240" width="60" height="110" as="geometry" />
        </mxCell>
        <mxCell id="nuvz17tOCaLrUb6fHaeC-5" value="" style="group" parent="1" vertex="1" connectable="0">
          <mxGeometry x="170" y="350" width="90" height="110" as="geometry" />
        </mxCell>
        <mxCell id="nuvz17tOCaLrUb6fHaeC-2" value="" style="shape=internalStorage;whiteSpace=wrap;html=1;backgroundOutline=1;" parent="nuvz17tOCaLrUb6fHaeC-5" vertex="1">
          <mxGeometry y="30" width="90" height="50" as="geometry" />
        </mxCell>
        <mxCell id="nuvz17tOCaLrUb6fHaeC-3" value="" style="shape=internalStorage;whiteSpace=wrap;html=1;backgroundOutline=1;" parent="nuvz17tOCaLrUb6fHaeC-5" vertex="1">
          <mxGeometry y="70" width="90" height="40" as="geometry" />
        </mxCell>
        <mxCell id="nuvz17tOCaLrUb6fHaeC-4" value="Table" style="text;html=1;align=center;verticalAlign=middle;resizable=0;points=[];autosize=1;" parent="nuvz17tOCaLrUb6fHaeC-5" vertex="1">
          <mxGeometry y="10" width="40" height="20" as="geometry" />
        </mxCell>
        <mxCell id="nuvz17tOCaLrUb6fHaeC-17" value="" style="rounded=0;whiteSpace=wrap;html=1;strokeColor=#FF0000;" parent="nuvz17tOCaLrUb6fHaeC-5" vertex="1">
          <mxGeometry y="50" width="20" height="20" as="geometry" />
        </mxCell>
        <mxCell id="nuvz17tOCaLrUb6fHaeC-18" value="" style="rounded=0;whiteSpace=wrap;html=1;strokeColor=#FF0000;" parent="nuvz17tOCaLrUb6fHaeC-5" vertex="1">
          <mxGeometry x="20" y="50" width="70" height="20" as="geometry" />
        </mxCell>
        <mxCell id="nuvz17tOCaLrUb6fHaeC-13" style="rounded=0;orthogonalLoop=1;jettySize=auto;html=1;exitX=1;exitY=0;exitDx=0;exitDy=0;entryX=1;entryY=0;entryDx=0;entryDy=0;endArrow=none;endFill=0;strokeColor=#FF0000;" parent="1" source="nuvz17tOCaLrUb6fHaeC-12" target="nuvz17tOCaLrUb6fHaeC-2" edge="1">
          <mxGeometry relative="1" as="geometry" />
        </mxCell>
        <mxCell id="nuvz17tOCaLrUb6fHaeC-14" style="edgeStyle=none;rounded=0;orthogonalLoop=1;jettySize=auto;html=1;exitX=0;exitY=1;exitDx=0;exitDy=0;entryX=0;entryY=1;entryDx=0;entryDy=0;endArrow=none;endFill=0;strokeColor=#FF0000;" parent="1" source="nuvz17tOCaLrUb6fHaeC-12" target="nuvz17tOCaLrUb6fHaeC-3" edge="1">
          <mxGeometry relative="1" as="geometry" />
        </mxCell>
        <mxCell id="nuvz17tOCaLrUb6fHaeC-16" style="edgeStyle=none;rounded=0;orthogonalLoop=1;jettySize=auto;html=1;exitX=1;exitY=1;exitDx=0;exitDy=0;entryX=0;entryY=0.25;entryDx=0;entryDy=0;endArrow=none;endFill=0;strokeColor=#FF0000;" parent="1" source="nuvz17tOCaLrUb6fHaeC-12" target="nuvz17tOCaLrUb6fHaeC-2" edge="1">
          <mxGeometry relative="1" as="geometry" />
        </mxCell>
        <mxCell id="nuvz17tOCaLrUb6fHaeC-12" value="" style="rounded=0;whiteSpace=wrap;html=1;strokeColor=#FF0000;" parent="1" vertex="1">
          <mxGeometry x="105" y="330" width="10" height="15" as="geometry" />
        </mxCell>
        <mxCell id="nuvz17tOCaLrUb6fHaeC-23" style="edgeStyle=none;rounded=0;orthogonalLoop=1;jettySize=auto;html=1;exitX=1;exitY=0.5;exitDx=0;exitDy=0;entryX=0;entryY=0.5;entryDx=0;entryDy=0;endArrow=classic;endFill=1;strokeColor=#000000;" parent="1" source="nuvz17tOCaLrUb6fHaeC-20" target="nuvz17tOCaLrUb6fHaeC-22" edge="1">
          <mxGeometry relative="1" as="geometry" />
        </mxCell>
        <mxCell id="O2ZWDz2IXhsscBxJOdeX-2" style="edgeStyle=orthogonalEdgeStyle;rounded=0;orthogonalLoop=1;jettySize=auto;html=1;exitX=0.5;exitY=0;exitDx=0;exitDy=0;entryX=0.5;entryY=1;entryDx=0;entryDy=0;entryPerimeter=0;" edge="1" parent="1" source="nuvz17tOCaLrUb6fHaeC-20" target="O2ZWDz2IXhsscBxJOdeX-1">
          <mxGeometry relative="1" as="geometry" />
        </mxCell>
        <mxCell id="nuvz17tOCaLrUb6fHaeC-20" value="CDC" style="rounded=0;whiteSpace=wrap;html=1;strokeColor=#000000;fillColor=#FFFFFF;" parent="1" vertex="1">
          <mxGeometry x="300" y="395" width="40" height="30" as="geometry" />
        </mxCell>
        <mxCell id="nuvz17tOCaLrUb6fHaeC-21" style="edgeStyle=none;rounded=0;orthogonalLoop=1;jettySize=auto;html=1;exitX=1;exitY=0.5;exitDx=0;exitDy=0;entryX=0;entryY=0.5;entryDx=0;entryDy=0;endArrow=classic;endFill=1;" parent="1" source="nuvz17tOCaLrUb6fHaeC-18" target="nuvz17tOCaLrUb6fHaeC-20" edge="1">
          <mxGeometry relative="1" as="geometry" />
        </mxCell>
        <mxCell id="nuvz17tOCaLrUb6fHaeC-27" style="edgeStyle=none;rounded=0;orthogonalLoop=1;jettySize=auto;html=1;exitX=1;exitY=0.5;exitDx=0;exitDy=0;entryX=0;entryY=0.5;entryDx=0;entryDy=0;endArrow=classic;endFill=1;strokeColor=#000000;" parent="1" source="nuvz17tOCaLrUb6fHaeC-22" target="nuvz17tOCaLrUb6fHaeC-25" edge="1">
          <mxGeometry relative="1" as="geometry" />
        </mxCell>
        <mxCell id="nuvz17tOCaLrUb6fHaeC-28" style="edgeStyle=none;rounded=0;orthogonalLoop=1;jettySize=auto;html=1;exitX=1;exitY=0.25;exitDx=0;exitDy=0;entryX=0;entryY=0.5;entryDx=0;entryDy=0;endArrow=classic;endFill=1;strokeColor=#000000;" parent="1" source="nuvz17tOCaLrUb6fHaeC-22" target="nuvz17tOCaLrUb6fHaeC-24" edge="1">
          <mxGeometry relative="1" as="geometry" />
        </mxCell>
        <mxCell id="nuvz17tOCaLrUb6fHaeC-29" style="edgeStyle=none;rounded=0;orthogonalLoop=1;jettySize=auto;html=1;exitX=1;exitY=0.75;exitDx=0;exitDy=0;entryX=0;entryY=0.5;entryDx=0;entryDy=0;endArrow=classic;endFill=1;strokeColor=#000000;" parent="1" source="nuvz17tOCaLrUb6fHaeC-22" target="nuvz17tOCaLrUb6fHaeC-26" edge="1">
          <mxGeometry relative="1" as="geometry" />
        </mxCell>
        <mxCell id="nuvz17tOCaLrUb6fHaeC-22" value="Broker" style="rounded=0;whiteSpace=wrap;html=1;strokeColor=#000000;fillColor=#FFFFFF;" parent="1" vertex="1">
          <mxGeometry x="370" y="395" width="70" height="30" as="geometry" />
        </mxCell>
        <mxCell id="nuvz17tOCaLrUb6fHaeC-24" value="Consumer 1" style="rounded=0;whiteSpace=wrap;html=1;strokeColor=#000000;fillColor=#FFFFFF;" parent="1" vertex="1">
          <mxGeometry x="480" y="342.5" width="80" height="30" as="geometry" />
        </mxCell>
        <mxCell id="nuvz17tOCaLrUb6fHaeC-25" value="Consumer 2" style="rounded=0;whiteSpace=wrap;html=1;strokeColor=#000000;fillColor=#FFFFFF;" parent="1" vertex="1">
          <mxGeometry x="480" y="395" width="80" height="30" as="geometry" />
        </mxCell>
        <mxCell id="nuvz17tOCaLrUb6fHaeC-26" value="Consumer N" style="rounded=0;whiteSpace=wrap;html=1;strokeColor=#000000;fillColor=#FFFFFF;" parent="1" vertex="1">
          <mxGeometry x="480" y="447.5" width="80" height="30" as="geometry" />
        </mxCell>
        <mxCell id="nuvz17tOCaLrUb6fHaeC-30" value="" style="endArrow=none;dashed=1;html=1;dashPattern=1 3;strokeWidth=2;exitX=0.5;exitY=0;exitDx=0;exitDy=0;entryX=0.5;entryY=1;entryDx=0;entryDy=0;" parent="1" source="nuvz17tOCaLrUb6fHaeC-26" target="nuvz17tOCaLrUb6fHaeC-25" edge="1">
          <mxGeometry width="50" height="50" relative="1" as="geometry">
            <mxPoint x="360" y="380" as="sourcePoint" />
            <mxPoint x="410" y="330" as="targetPoint" />
          </mxGeometry>
        </mxCell>
        <mxCell id="nuvz17tOCaLrUb6fHaeC-31" value="Application" style="text;html=1;align=center;verticalAlign=middle;resizable=0;points=[];autosize=1;fontColor=#FF0000;" parent="1" vertex="1">
          <mxGeometry x="474" y="322.5" width="70" height="20" as="geometry" />
        </mxCell>
        <mxCell id="O2ZWDz2IXhsscBxJOdeX-1" value="Storage" style="shape=note;whiteSpace=wrap;html=1;backgroundOutline=1;darkOpacity=0.05;size=17;" vertex="1" parent="1">
          <mxGeometry x="295" y="306.88" width="50" height="61.25" as="geometry" />
        </mxCell>
      </root>
    </mxGraphModel>
  </diagram>
</mxfile>
